<svg fill="none" height="757" viewBox="0 0 1072 757" width="1072" xmlns="http://www.w3.org/2000/svg" xmlns:xlink="http://www.w3.org/1999/xlink"><clipPath id="a"><path d="m0 0h1072v757h-1072z"/></clipPath><g clip-path="url(#a)"><path d="m566.15 756.58c251.157 0 454.76-25.887 454.76-57.82s-203.603-57.82-454.76-57.82-454.76 25.887-454.76 57.82 203.603 57.82 454.76 57.82z" fill="#e3e5fc"/><path d="m655.62 533.72c7.6-9.46 20.58-15.07 31.56-22.11 10.97-7.04 20.76-17.3 18.27-28.88-4.12-19.21-38.29-29.05-41.89-48.3-4.11-22.01 33.45-31.77 42.18-52.13 4.98-11.62-.42-25.21-9.29-36.16s-20.98-20.07-31.43-30.15c-12.66-12.21-23.2-26.52-25.08-41.76s6.69-31.33 23.94-37c9.72-3.19 20.92-2.87 31.43-4.31s21.48-5.56 24.35-13.64c1.42-4.01.62-8.39.25-12.65-3.06-35.44 29.27-68.63 72.67-74.58-2.56 8.35 11.49 16.02 22.1 14.17 10.61-1.84 17.54-9.26 23.49-16.27s12.53-14.54 22.96-16.83c8.37-1.84 17.6.1 26.28 2.12 6.72 1.56 14.51 3.97 16.67 9.26.9 2.2.6 4.52.22 6.74-3.45 20.05-12.87 38.81-17.55 58.63s-3.98 42.11 10.94 59.71c8.97 10.58 22.64 18.93 28.66 30.62 9.55 18.54-3.27 37.9-16.4 53.6s-27.57 33.69-21.12 52.88c6.48 19.3 103.61 7.53 80.01 126.4-5.72 28.8-46.84-1.89-42.25 27.32 1.94 12.34-26.09 1.26-28.8 13.23-.86 3.8 17.61 22.46 16.12 26.1-5.17 12.64-21.07 12.81-8.74 23.01 6.44 5.33 15.13 9.85 17.43 16.85 4.13 12.57-15.06 20.52-31.09 21.02-13.38.41-16.23-38-27.35-31.68-13.06 7.43-26.93 36.59-90.99 28.45-26.48-3.37-37.01-70.11-56.86-58.81-45.39 25.82-100.07 4.18-60.69-44.85z" fill="#e3e5fc"/><g fill="#fff"><path d="m778.336 649.206h385.56v3.75h-385.56z" transform="matrix(.03459948 -.99940126 .99940126 .03459948 102.588685 1404.613787)"/><path d="m781.25 455.07-2.14-3.08c5.8-4.03 56.96-39.38 66.79-40l.23 3.74c-6.64.42-42.44 23.76-64.88 39.34z"/><path d="m781.46 383.38c-24.91-34.02-66.32-92.01-63.74-98.24.33-.79 1.01-1.33 1.86-1.46l.57 3.7c.72-.11 1.1-.77 1.1-1.09-.08 6.1 38.74 61.42 63.23 94.86z"/><path d="m790.97 315.19-2.51-2.78c1.89-1.7 46.34-41.75 50.97-45.16l2.22 3.02c-4.48 3.29-50.22 44.5-50.68 44.92z"/></g><path d="m849.48 419.33c2.26-5.91 4.97-12.11 11.73-15.4 8.57-4.14 20.93-2.43 30.69 1.63 9.75 4.06 18.02 10.27 27.48 15.2 2.54 1.32 5.51 2.6 8.31 2.1 2.83-.5 4.57-2.66 5.89-4.72 14.74-23.82 9.93-52.84 15.24-78.72 1.34-7.07 3.8-14.67 9.92-19.72 16.08-14.05 19.35-4.05 34.73-19.97 10.74-11.12 17.24-34.68 33-40.22 32.59-11.45 19.14 52.48 18.31 67.59-1.56 28.66 37.41 34.95 23.38 67.28-6.09 14.04-18.16 24.08-27.16 35.97-8.91 11.96-14.37 28.75-3.66 41.4 6.97 8.24 20.76 14.87 19.98 24.71-.48 5.79-6.39 9.33-11.94 12.05-13.85 6.86-28.2 13.01-43 18.45-3.74 1.38-7.72 2.84-9.52 5.77-2.47 4-.09 9.43 1.46 14.41 5.72 18.37-1.74 35.87-16.19 47.07-14.37 11.25-34.96 17-55.92 21.24-26.97 5.5-55.01 8.96-83.91 10.26-84.11.27-43.84-56.1-35.95-77.76 15.15-43.51 30.87-86.39 47.13-128.62z" fill="#fdc510"/><path d="m863.87 606.28c-.34 0-.69-.09-1-.29-.87-.55-1.14-1.71-.59-2.58l141.37-224.57c.55-.88 1.72-1.14 2.58-.59.87.55 1.14 1.71.59 2.58l-141.37 224.57c-.35.57-.96.88-1.58.88z" fill="#fff"/><path d="m944.26 478.47c-.79 0-1.52-.5-1.78-1.29l-10.63-32.57c-.32-.98.22-2.04 1.2-2.36.99-.32 2.04.21 2.36 1.2l10.63 32.57c.32.98-.22 2.04-1.2 2.36-.2.06-.39.09-.58.09z" fill="#fff"/><path d="m964.61 446.85c-.85 0-1.61-.58-1.82-1.44-.24-1.01.38-2.02 1.38-2.26l33.31-8.01c1.02-.25 2.02.38 2.26 1.38.24 1.01-.38 2.02-1.38 2.26l-33.31 8.01c-.14.04-.29.06-.44.06z" fill="#fff"/><path d="m669.83 606.07c-1.88-5.23-2.82-11.23-.37-16.22 4.75-9.68 18.99-9.78 28.56-4.84s17.31 13.31 27.5 16.83 24.67-1.38 24.92-12.15c.12-5.44-3.42-10.17-6.39-14.73-8.52-13.09-13.45-28.5-14.09-44.1-.25-5.94 1.76-13.71 7.7-14.05 3.48-.2 6.39 2.48 8.83 4.97 10.08 10.28 20.16 20.56 30.24 30.85 2.18-29.22 5.91-61.64 28.11-80.76 4.14-3.56 10.63-6.44 14.68-2.77 1.79 1.63 2.49 4.12 2.95 6.5 3.62 18.7-2.51 38.52 2.66 56.85.77 2.72 1.86 5.49 4.04 7.29 10.06 8.34 23.09-12.57 35.74-9.27 8.23 2.15 10.26 13.53 6.94 21.36s-9.96 13.79-13.93 21.31c-3.96 7.52-4.05 18.62 3.38 22.75 3.47 1.93 7.67 1.81 11.64 1.63l36.99-1.65c-6.59 9.62-13.17 19.25-19.76 28.87-1.73 2.53-3.55 5.49-2.76 8.46 1.65 6.24 11.48 4.82 16.17 9.26 5.24 4.96.74 14.52-5.99 17.14s-14.24.96-21.45.62c-40.46-1.93-69.17 24.83-109.91 8.95-33.17-12.94-82.87-25.41-96.4-63.1z" fill="#5a54ff"/><path d="m794.3 675.6c-.03 0-.05 0-.08 0-.78-.04-1.36-.71-1.32-1.48 2.2-38.76 6.56-104.11 10.98-106.23.7-.33 1.54-.04 1.87.66.3.62.1 1.35-.44 1.74-2.95 4.49-7.46 66.04-9.62 103.99-.03.74-.65 1.32-1.39 1.32z" fill="#fff"/><path d="m796.66 638.92c-.64 0-1.21-.44-1.37-1.08-.18-.75.29-1.51 1.05-1.69l50.04-11.83c.75-.18 1.51.29 1.69 1.04s-.29 1.51-1.05 1.69l-50.04 11.83c-.11.02-.22.04-.32.04z" fill="#fff"/><path d="m794.91 665.41c-.25 0-.5-.06-.73-.2l-63.76-38.61c-.66-.4-.87-1.27-.47-1.93s1.27-.88 1.93-.47l63.76 38.61c.66.4.87 1.27.47 1.93-.26.43-.72.67-1.2.67z" fill="#fff"/><path d="m798.22 618.13c-.44 0-.87-.2-1.14-.59l-23.86-33.32c-.45-.63-.31-1.51.32-1.96s1.5-.31 1.96.32l23.86 33.32c.45.63.31 1.51-.32 1.96-.25.18-.53.27-.82.27z" fill="#fff"/><path d="m912.9 56.16c.88 1.3 2.04 2.52 3.55 2.94 2.53.69 5.18-1.23 6.24-3.63s.92-5.13.77-7.75c4.02 3.78 9.53 6.83 14.89 5.5s8.75-8.98 4.65-12.69c3.89 1.01 8.07 2.02 11.84.61 3.76-1.4 6.44-6.32 4.09-9.58-1.18-1.64-3.21-2.39-5.12-3.05-8.63-2.98-17.26-5.96-25.89-8.94-2.23-.77-4.54-1.55-6.9-1.36-17.64 1.46-15.49 27.14-8.12 37.95z" fill="#fdc510"/><path d="m97.3901 216.29c.88 1.3 2.04 2.52 3.5499 2.94 2.53.69 5.18-1.23 6.24-3.63s.92-5.13.77-7.75c4.02 3.78 9.53 6.83 14.89 5.5s8.75-8.98 4.65-12.69c3.89 1.01 8.07 2.02 11.84.61 3.76-1.4 6.44-6.32 4.09-9.58-1.18-1.64-3.21-2.39-5.12-3.05-8.63-2.98-17.26-5.96-25.89-8.94-2.23-.77-4.54-1.55-6.9-1.36-17.6399 1.46-15.4899 27.13-8.1199 37.95z" fill="#e3e5fc"/><path d="m323.17 98.84c-3.52 1.1-17.65-41.7-31.51-23.32-12.37 16.41 20.53 26.76 31.51 23.32z" fill="#fdc510"/><path d="m23.68 311.52c9.48 1.71 19.24.71 28.69-1.14-9.69-3.22-18.39-8.8-27.64-13.13-5.45-2.55-24.7399588-11.26-24.339959.99.24 7.13 18.109959 12.35 23.289959 13.28z" fill="#e3e5fc"/><path d="m836.01 45.4c13.35 5.13 28.8 4.53 41.72-1.62-5.51 2.63-27.38-6.68-33.28-8.39-8.25-2.39-20.6-9.59-28.78-5.71 2.92 7.31 12.87 12.85 20.34 15.72z" fill="#e3e5fc"/><path d="m929.54 194.9c4.1 7.21 8.19 14.42 12.29 21.63 2.02 3.55 4.09 7.18 7.15 9.89s7.33 4.4 11.28 3.35c1.59-.42 3.21-1.47 3.48-3.09.2-1.19-.38-2.36-.96-3.41-6.68-12.09-16.35-22.52-27.91-30.08" fill="#fdc510"/><path d="m990.75 146.54c1.44.21 2.88-.3 4.23-.84 9.27-3.69 17.97-8.8 25.71-15.1-6.4-.08-40.48-6.07-44.09-2.46-5.86 5.85 7.33 17.38 14.15 18.4z" fill="#e3e5fc"/><path d="m204.88 85.23c.86-.35 1.76-.77 2.23-1.57 1.52-2.61-2.73-4.67-5.75-4.71-6.42-.1-38.97-3.4-33.72 7.92 5.05 10.89 29.66 1.5 37.24-1.64z" fill="#fdc510"/><path d="m262.9 573.23c-17.77-5.09-35.38-10.36-48.11-23.62-6.58-6.86-10.62-19.38-2.87-24.88 3.9-2.77 9.12-2.33 13.9-2.68 18.37-1.32 8.15-17.83-1.08-24.15-16.29-11.15-36.08-20.07-44.21-38.07-.51-1.13-.98-2.37-.73-3.59.37-1.82 2.16-2.95 3.84-3.73 11.49-5.25 31.06 1.68 39.18-9.66 19.82-27.71-41.71-74.56-55.38-92.35-2.61-3.4-5.34-7.08-5.59-11.36-.49-8.3 8.7-14.23 17.02-14.49 12.74-.39 24.67 6.89 37.54 4.82 10.14-1.63 16.83-11.24 19.15-20.64 6.97-28.31-6.49-59-5.03-87.71 1.2-23.5 17.46-68.28 49.13-57.33 14.5 5.01 18.87 22.81 23.4 37.47 4.19 13.59 10.21 28.87 18.94 40.14 6.4 8.26 15.76 14.84 26.19 15.42 20.27 1.13 46.85-15.07 47.16 17.68.1 10.03-3.46 19.72-4.61 29.69-1.15 9.96.88 21.46 9.19 27.08 15.15 10.25 60.46-10.87 58.32 21.49-.54 8.1-4.9 15.37-8.7 22.54-18.36 34.68 16.61 33.08 25.4 59.43 3.16 9.48 1.13 20.07-3.32 29.01-7.14 14.35-19.5 25.86-28.51 39.05-18.29 26.78-30.54 57.26-40.63 87.92-7.4 22.48-13.67 66.28-45.1 66.71-19.39.27-25.62-29.16-32.15-42.43-12.73-25.86-36.15-34.27-62.34-41.76z" fill="#fdc510"/><path d="m376.43 667.5c-.87 0-1.65-.61-1.83-1.5l-70.39-347.21c-.2-1.01.45-2 1.46-2.21 1.03-.2 2.01.45 2.21 1.46l70.39 347.21c.2 1.01-.45 2-1.46 2.21-.13.02-.25.04-.38.04z" fill="#fff"/><path d="m329.54 426.34c-.26 0-.52-.05-.77-.17-.94-.42-1.36-1.53-.94-2.48l29.94-66.5c.42-.95 1.54-1.36 2.48-.94s1.36 1.53.94 2.48l-29.94 66.5c-.32.7-1 1.11-1.71 1.11z" fill="#fff"/><path d="m356.35 551.97c-.26 0-.52-.05-.77-.17-.94-.42-1.36-1.53-.94-2.48l29.94-66.5c.43-.95 1.54-1.36 2.48-.94s1.36 1.53.94 2.48l-29.94 66.5c-.31.7-.99 1.11-1.71 1.11z" fill="#fff"/><path d="m337.17 494.01c-.27 0-.54-.06-.8-.18l-64.71-30.56c-.93-.44-1.34-1.56-.89-2.49.44-.94 1.56-1.33 2.5-.89l64.71 30.56c.93.44 1.34 1.56.89 2.49-.33.67-1 1.07-1.7 1.07z" fill="#fff"/><path d="m981.69 677.97c4.74-8.94 8.27-17.62 15.03-25.37 2.28-2.61 5.07-5.23 8.54-5.32.65-.02 1.38.09 1.83.59.4.44.49 1.07.54 1.66 3.19 37.67-45.91 35.48-55.72 3.76-.61-1.96-1.06-4.09-.46-6.02 1.09-3.53 5.49-5.01 8.99-3.87 3.5 1.13 6.15 4.18 8.11 7.39 5.2 8.48 6.82 18.61 8.32 28.42-2.43-12.84-.88-26.33 4.37-38 .79-1.75 2.31-3.75 4.12-3.11.87.31 1.44 1.16 1.89 1.99 3.26 5.93 3.5 13.13 2.03 19.62s-4.52 12.44-7.59 18.26z" fill="#978cff"/><path d="m339.57 638.47c4.39-6.86 8.17-14.81 9.14-23.7.23-2.15.26-4.52-.72-6.26-.85-1.51-2.28-2.22-3.67-2.61-9.86-2.78-19.11 6.75-26.22 16.18-12.57 16.66-23.79 35.09-33.41 54.88 5.75-11.84 8.79-34.55 7.42-48.47-.05-.55-.14-1.14-.46-1.49-.33-.35-.8-.33-1.22-.23-3.03.77-4.94 4.66-6.4 8.26-4.5 11.15-8.41 24.03-11.02 36.54 1.64-7.86-3.21-17.32-7.61-22-7.87-8.37-6.19 3.31-4.48 10.17 1.67 6.73 12.8 33.05 20.73 27.17 1.45-1.08 1.81-6.96 3-8.85 2.08-3.28 4.97-4.36 7.95-5.58 8-3.28 16.33-4.63 23.85-9.79 8.79-6.02 16.73-14.23 23.12-24.22z" fill="#978cff"/><path d="m437.45 618.48c.34-.05.7-.01 1.08.12 1.19.42 1.8 1.7 2.26 2.88 4.15 10.77 3.65 8.05 4.81 22.86 1.04-9.53.31-7.77 3.65-16.76.65-1.75 1.39-3.55 2.81-4.77 9.19-7.86 3.73 21.33 2.51 24.78-4.51 12.77-16.48 17.66-29.22 15.25-11.18-2.11-22.59-8.74-28.09-18.9-.5-.92-.94-2.1-.33-2.95.42-.59 1.19-.78 1.9-.9 6.38-1.03 12.89 1.26 18.42 4.6 5.54 3.34 10.37 7.7 15.68 11.4 3.76 2.62 10.91 1.29 15.49 1.12 7.78-.29 10.32-3.74 16.33-8.69 1.31-1.08 2.76-2.11 4.44-2.36s3.62.52 4.2 2.12c.34.95.16 2.01-.12 2.98-3.6 12.33-18.63 13.15-26.61 5.04-7.61-7.74-13.93-21.63-12.62-32.57.26-2.22 1.53-4.99 3.41-5.25z" fill="#f44e4e"/><path d="m75.86 555.58c2.22-1.27 4.63-2.2 7.15-2.66 10.51-1.92 20.81 4.27 28.7 11.48 7.88 7.22 14.77 15.86 24.28 20.75 4.42 2.27 11.52 2.51 12.67-2.32.54-2.25-.64-4.51-1.82-6.5-11.86-19.93-28.82-35.46-44.01-52.73-4.06-4.62-8.38-10.9-5.58-16.38 3-5.88 11.89-5.45 17.43-1.85 5.54 3.59 9.57 9.29 15.45 12.3 1.53.78 3.24 1.38 4.95 1.17 3.24-.4 5.53-3.65 5.94-6.89 2.5-19.93-21.57-35.65-29.06-51.98-6.4-13.93-5.15-30.09-2.73-45.23 1.89-11.82 4.81-24.29 13.39-32.64 1.94-1.88 4.34-3.59 7.04-3.58 10.29.02 10.52 23.9 16.23 30.55 5.18 6.05 12.65 10.33 16 17.55 4.23 9.12.61 19.8 1.29 29.83 1.1 16.04 15.42 19.96 19.61 32.06.82-9.05 1.55-18.24 2.31-27.35.24-2.9.66-6.15 2.95-7.95 4.99-3.93 11.6 3.19 12.47 9.48 1.15 8.28-1.11 16.62-1.64 24.97s1.25 17.79 8.12 22.55c7.57 5.25 17.79 2.74 26.78.7s20.06-2.72 25.73 4.55c2.23 2.85 3.18 6.5 3.59 10.1 3.53 30.44-27 58.18-20.54 88.13 5.79 26.86 21.68 43.36-7.13 63.07-11.81 8.08-24.45 11.45-38.49 7.12-10.74-3.32-20.19-9.76-29.66-15.8-19.57-12.47-42.18-18.88-63.07-28.86-14.59-6.97-28.61-16.49-36.91-30.37-8.3-13.87-9.63-32.79.1-45.7 2.29-3.04 5.17-5.68 8.46-7.57z" fill="#f44e4e"/><path d="m217.14 686.82c-.79 0-1.53-.5-1.78-1.3l-75.47-232.88c-.32-.98.22-2.04 1.2-2.36 1-.32 2.04.22 2.36 1.2l75.47 232.88c.32.98-.22 2.04-1.2 2.36-.2.07-.39.1-.58.1z" fill="#fff"/><path d="m202.08 640.36c-.18 0-.35-.03-.53-.08l-90.69-26.82c-.99-.29-1.56-1.34-1.27-2.33.3-.99 1.34-1.56 2.33-1.27l90.69 26.82c.99.29 1.56 1.34 1.27 2.33-.25.82-.99 1.35-1.8 1.35z" fill="#fff"/><path d="m173.74 552.93c-.25 0-.51-.05-.75-.16l-34.67-15.27c-.95-.42-1.38-1.52-.96-2.47s1.53-1.38 2.47-.96l34.67 15.27c.95.42 1.38 1.52.96 2.47-.31.7-.99 1.12-1.72 1.12z" fill="#fff"/><path clip-rule="evenodd" d="m347.23 207.31c0-114.33 92.68-207.019991 207.02-207.019991 114.33 0 207.02 92.679991 207.02 207.019991s-144.26 375.64-207.02 375.64c-57.14 0-207.02-261.31-207.02-375.64zm66.08 4.33c0 77.84 63.1 140.94 140.94 140.94s140.94-63.1 140.94-140.94-63.1-140.94-140.94-140.94-140.94 63.1-140.94 140.94z" fill="#978cff" fill-rule="evenodd"/><path d="m554.25 712.52c81.832 0 148.17-8.968 148.17-20.03s-66.338-20.03-148.17-20.03-148.17 8.968-148.17 20.03 66.338 20.03 148.17 20.03z" fill="#978cff"/></g></svg>